<?xml version="1.0" standalone="no" ?>
<!DOCTYPE svg PUBLIC "-//W3C//DTD SVG 1.1//EN" "http://www.w3.org/Graphics/SVG/1.1/DTD/svg11.dtd">

<svg width="800px" height="800px" xmlns="http://www.w3.org/2000/svg" version="1.1">
<circle cx="20" cy="780" r="3" fill="black"/>
<circle cx="40" cy="260" r="3" fill="black"/>
<circle cx="80" cy="100" r="3" fill="black"/>
<circle cx="140" cy="60" r="3" fill="black"/>
<circle cx="380" cy="140" r="3" fill="black"/>
<circle cx="380" cy="540" r="3" fill="black"/>
<circle cx="220" cy="700" r="3" fill="black"/>
<polygon points="20,780,40,260,80,100,140,60,380,140,380,540,220,700" style="fill:black;fill-opacity:0.0;stroke:red;stroke-width:1"/><circle cx="380" cy="640" r="3" fill="black"/>
<circle cx="400" cy="160" r="3" fill="black"/>
<circle cx="500" cy="60" r="3" fill="black"/>
<circle cx="560" cy="60" r="3" fill="black"/>
<circle cx="740" cy="180" r="3" fill="black"/>
<circle cx="800" cy="360" r="3" fill="black"/>
<circle cx="720" cy="740" r="3" fill="black"/>
<circle cx="620" cy="720" r="3" fill="black"/>
<polygon points="380,640,400,160,500,60,560,60,740,180,800,360,720,740,620,720" style="fill:black;fill-opacity:0.0;stroke:blue;stroke-width:1"/><circle cx="420" cy="600" r="3" fill="black"/>
<circle cx="420" cy="560" r="3" fill="black"/>
<circle cx="500" cy="500" r="3" fill="black"/>
<polygon points="420,600,420,560,500,500" style="fill:black;fill-opacity:0.0;stroke:red;stroke-width:1"/><circle cx="680" cy="560" r="3" fill="black"/>
<circle cx="540" cy="440" r="3" fill="black"/>
<circle cx="520" cy="340" r="3" fill="black"/>
<circle cx="720" cy="400" r="3" fill="black"/>
<polygon points="680,560,540,440,520,340,720,400" style="fill:black;fill-opacity:0.0;stroke:blue;stroke-width:1"/><circle cx="220" cy="460" r="3" fill="black"/>
<circle cx="140" cy="540" r="3" fill="black"/>
<circle cx="80" cy="480" r="3" fill="black"/>
<circle cx="160" cy="380" r="3" fill="black"/>
<circle cx="220" cy="320" r="3" fill="black"/>
<polygon points="220,460,140,540,80,480,160,380,220,320" style="fill:black;fill-opacity:0.0;stroke:red;stroke-width:1"/><circle cx="280" cy="480" r="3" fill="black"/>
<circle cx="240" cy="300" r="3" fill="black"/>
<circle cx="360" cy="200" r="3" fill="black"/>
<polygon points="280,480,240,300,360,200" style="fill:black;fill-opacity:0.0;stroke:blue;stroke-width:1"/></svg>
